# xmcd
#
# Track frame offsets: 
#        150
#        17109
#        36206
#        57845
#        79972
#        107739
#        116958
#        136542
#        162989
#        166651
#        180385
#        206359
#        215908
#
# Disc length: 3105 seconds
#
# Revision: 0
# Processed by: cddbd v1.5.2PL0 Copyright (c) Steve Scherf et al.
# Submitted via: ExactAudioCopy v1.0b3
#
DISCID=ad0c1f0d
DTITLE=Hazmat Modine - Cicada
DYEAR=2011
DGENRE=Blues
TTITLE0=Mocking Bird
TTITLE1=Child Of A Blind Man
TTITLE2=Two Fourty Seven
TTITLE3=Cicada
TTITLE4=Buddy
TTITLE5=In Two Yers
TTITLE6=I've Been Lonely For So Long
TTITLE7=The Tide
TTITLE8=Ebb Tide
TTITLE9=Walking Stick
TTITLE10=So Glad
TTITLE11=Contonou Stomp
TTITLE12=Dead Crow
EXTD=
EXTT0=
EXTT1=
EXTT2=
EXTT3=
EXTT4=
EXTT5=
EXTT6=
EXTT7=
EXTT8=
EXTT9=
EXTT10=
EXTT11=
EXTT12=
PLAYORDER=
